<mxfile host="app.diagrams.net" modified="2023-01-09T03:11:23.292Z" agent="5.0 (Macintosh; Intel Mac OS X 10_15_7) AppleWebKit/605.1.15 (KHTML, like Gecko) Version/16.0 Safari/605.1.15" version="20.8.3" etag="UdkX2-tG-dzl04g0ZjaZ" type="github">
  <diagram id="4ImesfKOH706sMINZZgn" name="Page-1">
    <mxGraphModel dx="922" dy="546" grid="1" gridSize="10" guides="1" tooltips="1" connect="1" arrows="1" fold="1" page="1" pageScale="1" pageWidth="850" pageHeight="1100" math="0" shadow="0">
      <root>
        <mxCell id="0" />
        <mxCell id="1" parent="0" />
        <mxCell id="Eq7RXRJCarPIpQtKBuLK-1" value="vials" style="swimlane;childLayout=stackLayout;horizontal=1;startSize=30;horizontalStack=0;rounded=1;fontSize=14;fontStyle=0;strokeWidth=2;resizeParent=0;resizeLast=1;shadow=0;dashed=0;align=center;" vertex="1" parent="1">
          <mxGeometry x="340" y="220" width="160" height="150" as="geometry" />
        </mxCell>
        <mxCell id="Eq7RXRJCarPIpQtKBuLK-2" value="+numeric unique identifier&#xa;+manufacturing date&#xa;+expiration date&#xa;+manufacturing facility&#xa;+manufactring batch number&#xa;+storage container number&#xa;+isAdministered&#xa;+PatientID" style="align=left;strokeColor=none;fillColor=none;spacingLeft=4;fontSize=12;verticalAlign=top;resizable=0;rotatable=0;part=1;" vertex="1" parent="Eq7RXRJCarPIpQtKBuLK-1">
          <mxGeometry y="30" width="160" height="120" as="geometry" />
        </mxCell>
        <mxCell id="Eq7RXRJCarPIpQtKBuLK-3" value="storage containers" style="swimlane;childLayout=stackLayout;horizontal=1;startSize=30;horizontalStack=0;rounded=1;fontSize=14;fontStyle=0;strokeWidth=2;resizeParent=0;resizeLast=1;shadow=0;dashed=0;align=center;" vertex="1" parent="1">
          <mxGeometry x="610" y="110" width="190" height="120" as="geometry" />
        </mxCell>
        <mxCell id="Eq7RXRJCarPIpQtKBuLK-4" value="+storage container number&#xa;+storage container GPS number&#xa;+current location longitude&#xa;+current location lattitude&#xa;+manufacturer" style="align=left;strokeColor=none;fillColor=none;spacingLeft=4;fontSize=12;verticalAlign=top;resizable=0;rotatable=0;part=1;" vertex="1" parent="Eq7RXRJCarPIpQtKBuLK-3">
          <mxGeometry y="30" width="190" height="90" as="geometry" />
        </mxCell>
        <mxCell id="Eq7RXRJCarPIpQtKBuLK-6" value="" style="endArrow=classic;html=1;rounded=0;exitX=1.013;exitY=0.683;exitDx=0;exitDy=0;exitPerimeter=0;entryX=-0.006;entryY=0.167;entryDx=0;entryDy=0;entryPerimeter=0;" edge="1" parent="1" source="Eq7RXRJCarPIpQtKBuLK-2" target="Eq7RXRJCarPIpQtKBuLK-4">
          <mxGeometry width="50" height="50" relative="1" as="geometry">
            <mxPoint x="502" y="310" as="sourcePoint" />
            <mxPoint x="552" y="260" as="targetPoint" />
          </mxGeometry>
        </mxCell>
        <mxCell id="Eq7RXRJCarPIpQtKBuLK-7" value="shipments" style="swimlane;childLayout=stackLayout;horizontal=1;startSize=30;horizontalStack=0;rounded=1;fontSize=14;fontStyle=0;strokeWidth=2;resizeParent=0;resizeLast=1;shadow=0;dashed=0;align=center;" vertex="1" parent="1">
          <mxGeometry x="610" y="330" width="160" height="120" as="geometry" />
        </mxCell>
        <mxCell id="Eq7RXRJCarPIpQtKBuLK-8" value="+shipment identifier&#xa;+fromLocationAdress&#xa;+toLocationAddress&#xa;+shipping vendor&#xa;+trackingID" style="align=left;strokeColor=none;fillColor=none;spacingLeft=4;fontSize=12;verticalAlign=top;resizable=0;rotatable=0;part=1;" vertex="1" parent="Eq7RXRJCarPIpQtKBuLK-7">
          <mxGeometry y="30" width="160" height="90" as="geometry" />
        </mxCell>
      </root>
    </mxGraphModel>
  </diagram>
</mxfile>
